<svg

   xmlns:dc="http://purl.org/dc/elements/1.1/"
   xmlns:cc="http://creativecommons.org/ns#"
   xmlns:rdf="http://www.w3.org/1999/02/22-rdf-syntax-ns#"
   xmlns:svg="http://www.w3.org/2000/svg"
   xmlns="http://www.w3.org/2000/svg"
   xmlns:sodipodi="http://sodipodi.sourceforge.net/DTD/sodipodi-0.dtd"
   xmlns:inkscape="http://www.inkscape.org/namespaces/inkscape"
   version="1.1"
   id="svg3713"
   width="150"
   height="150"
   viewBox="0 0 125.21739 126.05217"
   sodipodi:docname="logo.svg"
   inkscape:version="0.92.4 (5da689c313, 2019-01-14)">
  <metadata
     id="metadata3719">
    <rdf:RDF>
      <cc:Work
         rdf:about="">
        <dc:format>image/svg+xml</dc:format>
        <dc:type
           rdf:resource="http://purl.org/dc/dcmitype/StillImage" />
        <dc:title></dc:title>
      </cc:Work>
    </rdf:RDF>
  </metadata>
  <defs
     id="defs3717" />
  <sodipodi:namedview
     pagecolor="#ffffff"
     bordercolor="#666666"
     borderopacity="1"
     objecttolerance="10"
     gridtolerance="10"
     guidetolerance="10"
     inkscape:pageopacity="0"
     inkscape:pageshadow="2"
     inkscape:window-width="1920"
     inkscape:window-height="1017"
     id="namedview3715"
     showgrid="false"
     inkscape:zoom="3.3716199"
     inkscape:cx="91.028001"
     inkscape:cy="76.590703"
     inkscape:window-x="-8"
     inkscape:window-y="-8"
     inkscape:window-maximized="1"
     inkscape:current-layer="svg3713" />
  <path
     inkscape:connector-curvature="0"
     id="path3725"
     d="m 59.268853,118.23746 c -1.930782,-1.17721 -2.378241,-1.91708 -2.378241,-3.93238 0,-1.36528 0.411615,-2.80754 0.914711,-3.20499 0.503087,-0.39746 3.584367,-0.93551 6.847278,-1.19565 11.851687,-0.94494 21.06126,-5.15473 29.29974,-13.393216 17.764789,-17.764767 17.764789,-46.368575 0,-64.133347 C 84.80178,23.227319 74.943613,19.142043 62.012985,19.142043 c -12.930637,0 -22.788804,4.085276 -31.939364,13.235834 -9.853826,9.853829 -13.706353,20.841498 -13.294125,37.915767 l 0.2298,9.518023 -2.280325,0.222003 C 12.928135,80.20899 12.047419,79.778843 10.54055,77.988037 7.7044186,74.617482 6.9073384,70.634079 7.3180062,61.883367 7.9608494,48.185468 13.171908,36.130677 22.732751,26.224318 36.166307,12.305289 54.359283,6.5444044 72.832235,10.360097 c 10.892866,2.249984 18.440544,6.248222 26.763907,14.177667 10.766558,10.257001 16.230448,22.098524 17.076878,37.00964 0.90816,15.998585 -4.36941,29.900659 -15.76411,41.525546 -8.238407,8.40481 -16.82579,13.13213 -28.076675,15.45605 -7.429715,1.53465 -10.682904,1.46473 -13.563382,-0.29154 z M 56.065507,99.44911 C 55.338862,98.567921 55.076216,95.973923 55.115531,90.066947 55.185308,79.5847 55.911472,78.083503 66.413437,66.711193 75.167829,57.231276 76.262304,55.097099 75.441292,49.107166 74.606729,43.018363 68.985923,38.517829 62.172421,38.482884 55.587955,38.449118 52.113452,41.285228 49.17518,49.092077 c -2.345018,6.23059 -2.898334,6.937152 -5.432565,6.937152 -3.057998,0 -4.41695,-2.052638 -4.398349,-6.643527 0.01999,-4.936326 1.824934,-9.041576 5.936302,-13.501884 10.260638,-11.13148 28.470182,-9.656036 37.445976,3.034092 3.20047,4.524889 4.04849,7.159283 4.094783,12.720715 0.05374,6.452979 -1.336783,9.167742 -9.147361,17.858916 -12.834685,14.28171 -11.902337,12.642919 -13.153538,23.120054 -0.495041,4.145282 -1.394393,6.550908 -2.799937,7.489415 -1.439029,0.96086 -4.625877,0.5901 -5.654984,-0.6579 z M 17.863548,96.952967 c -1.40401,-1.640269 -2.767722,-3.838853 -3.030473,-4.885735 -0.658332,-2.623019 1.636351,-5.600924 4.54062,-5.892533 1.96703,-0.197512 2.562694,0.260619 5.232954,4.024698 3.307906,4.662906 3.705653,6.687142 1.675053,8.524803 -2.438733,2.20702 -5.578351,1.54643 -8.418154,-1.771233 z"
     style="fill:#12c2aa;stroke-width:0.73176736" />
</svg>
